<?xml version="1.0" encoding="UTF-8" standalone="no"?>
<!-- Created with Inkscape (http://www.inkscape.org/) -->

<svg
   xmlns:dc="http://purl.org/dc/elements/1.1/"
   xmlns:cc="http://creativecommons.org/ns#"
   xmlns:rdf="http://www.w3.org/1999/02/22-rdf-syntax-ns#"
   xmlns:svg="http://www.w3.org/2000/svg"
   xmlns="http://www.w3.org/2000/svg"
   xmlns:sodipodi="http://sodipodi.sourceforge.net/DTD/sodipodi-0.dtd"
   xmlns:inkscape="http://www.inkscape.org/namespaces/inkscape"
   width="128"
   height="128"
   id="svg2"
   version="1.1"
   inkscape:version="0.48.2 r9819"
   sodipodi:docname="firefly_logo.svg"
   inkscape:export-filename="C:\Users\klange\firefly_logo.png"
   inkscape:export-xdpi="90"
   inkscape:export-ydpi="90">
  <defs
     id="defs4">
    <filter
       inkscape:collect="always"
       id="filter3801"
       x="-0.36"
       width="1.72"
       y="-0.36"
       height="1.72">
      <feGaussianBlur
         inkscape:collect="always"
         stdDeviation="10.097056"
         id="feGaussianBlur3803" />
    </filter>
    <filter
       inkscape:collect="always"
       id="filter3852"
       x="-0.36000001"
       width="1.72"
       y="-0.35999999"
       height="1.72">
      <feGaussianBlur
         inkscape:collect="always"
         stdDeviation="10.728846"
         id="feGaussianBlur3854" />
    </filter>
  </defs>
  <sodipodi:namedview
     id="base"
     pagecolor="#ffffff"
     bordercolor="#666666"
     borderopacity="1.0"
     inkscape:pageopacity="0.0"
     inkscape:pageshadow="2"
     inkscape:zoom="3.959798"
     inkscape:cx="83.998116"
     inkscape:cy="61.92073"
     inkscape:document-units="px"
     inkscape:current-layer="layer1"
     showgrid="true"
     inkscape:window-width="1440"
     inkscape:window-height="838"
     inkscape:window-x="-8"
     inkscape:window-y="-8"
     inkscape:window-maximized="1"
     showguides="true"
     inkscape:guide-bbox="true"
     inkscape:snap-global="true">
    <inkscape:grid
       type="xygrid"
       id="grid2985"
       empspacing="4"
       visible="true"
       enabled="true"
       snapvisiblegridlinesonly="false"
       spacingx="8px"
       spacingy="8px"
       dotted="false" />
    <sodipodi:guide
       orientation="-0.70710678,0.70710678"
       position="64,64"
       id="guide2991" />
  </sodipodi:namedview>
  <metadata
     id="metadata7">
    <rdf:RDF>
      <cc:Work
         rdf:about="">
        <dc:format>image/svg+xml</dc:format>
        <dc:type
           rdf:resource="http://purl.org/dc/dcmitype/StillImage" />
        <dc:title></dc:title>
      </cc:Work>
    </rdf:RDF>
  </metadata>
  <g
     inkscape:label="Layer 1"
     inkscape:groupmode="layer"
     id="layer1"
     transform="translate(0,-924.36218)">
    <rect
       style="color:#000000;fill:#33367a;fill-opacity:1;stroke:none;stroke-width:2;marker:none;visibility:visible;display:inline;overflow:visible;enable-background:accumulate"
       id="rect3848"
       width="128"
       height="128"
       x="0"
       y="0"
       transform="translate(0,924.36218)"
       ry="20"
       rx="20" />
    <path
       style="fill:#24221c;fill-opacity:1;stroke:#000000;stroke-width:4;stroke-linecap:butt;stroke-linejoin:miter;stroke-miterlimit:4;stroke-opacity:1;stroke-dasharray:none"
       d="m 96,1052.3622 c 0,0 24,-32 24,-48 0,-16.00002 8,-40.00002 0,-48.00002 -8,-8 -24,0 -24,0 l -72,72.00002 64,40 z"
       id="path3790"
       inkscape:connector-curvature="0"
       sodipodi:nodetypes="csscccc" />
    <path
       sodipodi:nodetypes="csscccc"
       inkscape:connector-curvature="0"
       id="path3792"
       d="m -2e-6,956.36218 c 0,0 32,-24 48,-24 16,0 40.000002,-8 48.000002,0 8,8 0,24 0,24 l -72.000002,71.99992 -40,-63.99992 z"
       style="fill:#24221c;fill-opacity:1;stroke:#000000;stroke-width:4;stroke-linecap:butt;stroke-linejoin:miter;stroke-miterlimit:4;stroke-opacity:1;stroke-dasharray:none" />
    <g
       id="g3836"
       transform="matrix(0,-1,-1,0,1052.9269,1052.6744)">
      <path
         style="fill:#ffffff;fill-opacity:0.23404254;stroke:none"
         d="m 96,128 c 0,0 8,-16 16,-32 8,-16 8,-48 0,-56 -8,-8 -16,-8 -16,-8 l -96,96 64,16 z"
         id="path3838"
         inkscape:connector-curvature="0"
         transform="translate(0,924.36218)" />
      <path
         style="color:#000000;fill:none;stroke:#cecece;stroke-width:2;stroke-linecap:butt;stroke-linejoin:miter;stroke-miterlimit:4;stroke-opacity:1;stroke-dasharray:none;stroke-dashoffset:0;marker:none;visibility:visible;display:inline;overflow:visible;enable-background:accumulate"
         d="m 112.88455,92.644661 -8.08122,-12.12183 12.6269,-16.414979 -15.15229,-6.81853 6.31346,-20.203051"
         id="path3840"
         inkscape:connector-curvature="0"
         transform="translate(0,924.36218)"
         sodipodi:nodetypes="ccccc" />
      <path
         inkscape:connector-curvature="0"
         id="path3842"
         d="m 96,1052.3622 c 0,0 8,-16 16,-32 8,-16 8,-48.00002 0,-56.00002 -8,-8 -16,-8 -16,-8 l -96,96.00002 64,16 z"
         style="fill:none;stroke:#cecece;stroke-width:2;stroke-linecap:butt;stroke-linejoin:miter;stroke-miterlimit:4;stroke-opacity:1;stroke-dasharray:none" />
      <path
         style="color:#000000;fill:none;stroke:#cecece;stroke-width:2;stroke-linecap:butt;stroke-linejoin:round;stroke-miterlimit:4;stroke-opacity:1;stroke-dasharray:none;stroke-dashoffset:0;marker:none;visibility:visible;display:inline;overflow:visible;enable-background:accumulate"
         d="m 91.923881,93.654814 16.162439,10.101526 -19.445435,11.11168 -0.757614,16.16244 -15.152288,-1.01015"
         id="path3844"
         inkscape:connector-curvature="0"
         transform="translate(0,924.36218)"
         sodipodi:nodetypes="ccccc" />
    </g>
    <g
       id="g3830">
      <path
         transform="translate(0,924.36218)"
         inkscape:connector-curvature="0"
         id="path3805"
         d="m 96,128 c 0,0 8,-16 16,-32 8,-16 8,-48 0,-56 -8,-8 -16,-8 -16,-8 l -96,96 64,16 z"
         style="fill:#ffffff;stroke:none;stroke-width:2;stroke-linecap:butt;stroke-linejoin:miter;stroke-opacity:0.52127659000000004;fill-opacity:0.23404256000000001;stroke-miterlimit:4;stroke-dasharray:none" />
      <path
         sodipodi:nodetypes="ccccc"
         transform="translate(0,924.36218)"
         inkscape:connector-curvature="0"
         id="path3809"
         d="m 112.88455,92.644661 -8.08122,-12.12183 12.6269,-16.414979 -15.15229,-6.81853 6.31346,-20.203051"
         style="color:#000000;fill:none;stroke:#cecece;stroke-width:2;stroke-linecap:butt;stroke-linejoin:miter;stroke-miterlimit:4;stroke-opacity:1;stroke-dasharray:none;stroke-dashoffset:0;marker:none;visibility:visible;display:inline;overflow:visible;enable-background:accumulate" />
      <path
         style="fill:none;stroke:#cecece;stroke-width:2;stroke-linecap:butt;stroke-linejoin:miter;stroke-miterlimit:4;stroke-opacity:1;stroke-dasharray:none"
         d="m 96,1052.3622 c 0,0 8,-16 16,-32 8,-16 8,-48.00002 0,-56.00002 -8,-8 -16,-8 -16,-8 l -96,96.00002 64,16 z"
         id="path3807"
         inkscape:connector-curvature="0" />
      <path
         sodipodi:nodetypes="ccccc"
         transform="translate(0,924.36218)"
         inkscape:connector-curvature="0"
         id="path3811"
         d="m 91.923881,93.654814 16.162439,10.101526 -19.445435,11.11168 -0.757614,16.16244 -15.152288,-1.01015"
         style="color:#000000;fill:none;stroke:#cecece;stroke-width:2;stroke-linecap:round;stroke-linejoin:round;stroke-miterlimit:4;stroke-opacity:1;stroke-dasharray:none;stroke-dashoffset:0;marker:none;visibility:visible;display:inline;overflow:visible;enable-background:accumulate" />
    </g>
    <rect
       style="fill:#000000;fill-rule:evenodd;stroke:#000000;stroke-width:1.41805732000000000px;stroke-linecap:butt;stroke-linejoin:miter;stroke-opacity:1"
       id="rect3001"
       width="68.066757"
       height="56.722298"
       x="710.78821"
       y="696.70715"
       transform="matrix(0.70631536,0.70789732,-0.70631536,0.70789732,0,0)" />
    <path
       sodipodi:nodetypes="cssccsc"
       inkscape:connector-curvature="0"
       id="path2999"
       d="m 23.074568,1030.3694 c 0,0 35.614137,36.2769 45.930812,25.9602 10.316676,-10.3167 30.950027,-20.6333 20.633351,-30.95 C 79.322056,1015.0629 64,1012.3622 51.95939,999.89771 40,988.36218 36.402329,972.14317 27.738678,963.47951 17.422002,953.16284 7.1053265,973.79619 -3.2113491,984.11287 -13.528025,994.42961 23.074568,1030.3694 23.074568,1030.3694 z"
       style="fill:#c9ac3b;stroke:#736220;stroke-width:4;stroke-linecap:butt;stroke-linejoin:miter;stroke-opacity:1;stroke-miterlimit:4;stroke-dasharray:none;fill-opacity:1" />
    <path
       style="fill:#c9ac3b;stroke:#736220;stroke-width:4;stroke-linecap:butt;stroke-linejoin:miter;stroke-opacity:1;stroke-miterlimit:4;stroke-dasharray:none;fill-opacity:1"
       d="M 52.383246,75.869292 C 52.383246,75.869292 80,104 88,96 96,88 112,80 104,72 96,64 80,48 80,48 71.110957,39.110957 60.325449,28.325449 56,24 48,16 40,32 32,40 24,48 52.383246,75.869292 52.383246,75.869292 z"
       id="path2997"
       inkscape:connector-curvature="0"
       transform="translate(0,924.36218)"
       sodipodi:nodetypes="cssccsc" />
    <path
       style="fill:#d4ff2a;stroke:#e5ff80;stroke-width:1px;stroke-linecap:butt;stroke-linejoin:miter;stroke-opacity:0.61904764"
       d="m 48,40 c 0,0 0,24 8,32 8,8 32,8 32,8 0,0 0,-8 -8,-16 L 72,56 64,48 C 56,40 48,40 48,40 z M 19.788072,52.211928 c -8,0 0,40 8,48.000002 8,8 48,16 48,8 0,-8 -32,-24.000002 -32,-24.000002 0,0 -16,-32 -24,-32 z"
       transform="translate(0,924.36218)"
       id="path2993"
       inkscape:connector-curvature="0"
       sodipodi:nodetypes="cscscscssscs" />
    <path
       style="fill:#c9ac3b;stroke:#736220;stroke-width:4;stroke-linecap:butt;stroke-linejoin:miter;stroke-opacity:1;color:#000000;fill-opacity:1;fill-rule:nonzero;stroke-miterlimit:4;stroke-dasharray:none;stroke-dashoffset:0;marker:none;visibility:visible;display:inline;overflow:visible;enable-background:accumulate"
       d="m 96,64 c 0,0 8,-8 8,-16 0,-8 0,-8 -8,-16 -8,-8 -8,-8 -16,-8 -8,0 -16,8 -16,8 z"
       id="path3771"
       inkscape:connector-curvature="0"
       transform="translate(0,924.36218)" />
    <path
       sodipodi:nodetypes="cscscscssscs"
       inkscape:connector-curvature="0"
       id="path3850"
       transform="translate(0,924.36218)"
       d="m 48,40 c 0,0 0,24 8,32 8,8 32,8 32,8 0,0 0,-8 -8,-16 L 72,56 64,48 C 56,40 48,40 48,40 z M 19.788072,52.211928 c -8,0 0,40 8,48.000002 8,8 48,16 48,8 0,-8 -32,-24.000002 -32,-24.000002 0,0 -16,-32 -24,-32 z"
       style="fill:#d6ff36;stroke:none;stroke-width:1px;stroke-linecap:butt;stroke-linejoin:miter;stroke-opacity:0.61904764000000001;filter:url(#filter3852);opacity:1;fill-opacity:1" />
  </g>
</svg>
